<svg width="88px" height="38px" viewBox="0 0 88 38" version="1.1" xmlns="http://www.w3.org/2000/svg" xmlns:xlink="http://www.w3.org/1999/xlink"><g id="Page-1" stroke="none" stroke-width="1" fill="none" fill-rule="evenodd"><g id="Aukai-Logo" transform="translate(-1.000000, 0.651367)" fill="#fff"><polygon id="Path" points="88.9650879 16.3920898 63.1164551 16.3920898 32.020752 4.31298828 42.5625 0"></polygon> <polygon id="Path-2" points="1.08984375 16.3920898 21.6479492 16.3920898 28.3740234 12.9097525 37.972168 16.3920898 58.1623535 16.3920898 29.0163574 5.37011719"></polygon> <path d="M8.32,19.3566328 L11.416,19.3566328 L18.808,36.3486328 L14.584,36.3486328 L13.12,32.7486328 L6.52,32.7486328 L5.104,36.3486328 L0.976,36.3486328 L8.32,19.3566328 Z M9.76,24.3006328 L7.696,29.5806328 L11.848,29.5806328 L9.76,24.3006328 Z M37.2400001,29.7966328 C37.2400001,30.8046379 37.0880016,31.7326286 36.7840001,32.5806328 C36.4799986,33.4286371 36.0280031,34.1646297 35.4280001,34.7886328 C34.8279971,35.4126359 34.0800046,35.9006311 33.1840001,36.2526328 C32.2879956,36.6046346 31.2560059,36.7806328 30.0880001,36.7806328 C28.9039942,36.7806328 27.8640046,36.6046346 26.9680001,36.2526328 C26.0719956,35.9006311 25.3240031,35.4126359 24.7240001,34.7886328 C24.1239971,34.1646297 23.6720016,33.4286371 23.3680001,32.5806328 C23.0639986,31.7326286 22.9120001,30.8046379 22.9120001,29.7966328 L22.9120001,19.3566328 L26.6560001,19.3566328 L26.6560001,29.6526328 C26.6560001,30.1806355 26.7399993,30.6686306 26.9080001,31.1166328 C27.0760009,31.5646351 27.3119986,31.9526312 27.6160001,32.2806328 C27.9200016,32.6086345 28.283998,32.8646319 28.7080001,33.0486328 C29.1320022,33.2326337 29.5919976,33.3246328 30.0880001,33.3246328 C30.5840026,33.3246328 31.039998,33.2326337 31.4560001,33.0486328 C31.8720022,32.8646319 32.2319986,32.6086345 32.5360001,32.2806328 C32.8400016,31.9526312 33.0759993,31.5646351 33.2440001,31.1166328 C33.4120009,30.6686306 33.4960001,30.1806355 33.4960001,29.6526328 L33.4960001,19.3566328 L37.2400001,19.3566328 L37.2400001,29.7966328 Z M43.2400002,19.3566328 L46.9840002,19.3566328 L46.9840002,26.4126328 L53.5840002,19.3566328 L58.4800002,19.3566328 L50.9200002,27.2526328 L59.1280002,36.3486328 L53.8960002,36.3486328 L46.9840002,28.2846328 L46.9840002,36.3486328 L43.2400002,36.3486328 L43.2400002,19.3566328 Z M68.4160003,19.3566328 L71.5120003,19.3566328 L78.9040003,36.3486328 L74.6800003,36.3486328 L73.2160003,32.7486328 L66.6160003,32.7486328 L65.2000003,36.3486328 L61.0720003,36.3486328 L68.4160003,19.3566328 Z M69.8560003,24.3006328 L67.7920003,29.5806328 L71.9440003,29.5806328 L69.8560003,24.3006328 Z M82.9600004,19.3566328 L86.7040004,19.3566328 L86.7040004,36.3486328 L82.9600004,36.3486328 L82.9600004,19.3566328 Z" id="AUKAI" fill-rule="nonzero"></path></g></g></svg>
